<svg width="199" height="61" viewBox="0 0 199 61" fill="none" xmlns="http://www.w3.org/2000/svg">
<rect x="1.38164" y="0.7625" width="196.725" height="59.475" rx="8.3875" fill="black"/>
<rect x="1.38164" y="0.7625" width="196.725" height="59.475" rx="8.3875" stroke="#A6A6A6" stroke-width="1.525"/>
<path fill-rule="evenodd" clip-rule="evenodd" d="M39.7905 30.8846C39.8238 28.2974 41.1802 25.9077 43.3843 24.5527C41.9875 22.5578 39.7318 21.3384 37.2977 21.2622C34.7369 20.9934 32.2543 22.7946 30.9493 22.7946C29.6191 22.7946 27.6099 21.2889 25.4464 21.3334C22.5997 21.4254 20.0101 23.0047 18.6252 25.4934C15.6758 30.5998 17.8758 38.1044 20.701 42.2319C22.1145 44.2531 23.7665 46.5108 25.9281 46.4307C28.0434 46.343 28.8334 45.0819 31.3867 45.0819C33.9163 45.0819 34.6575 46.4307 36.863 46.3798C39.1328 46.343 40.5628 44.3497 41.9268 42.3094C42.9424 40.8692 43.7239 39.2775 44.2424 37.5933C41.5465 36.4531 39.7937 33.8116 39.7905 30.8846Z" fill="white"/>
<path fill-rule="evenodd" clip-rule="evenodd" d="M35.6229 18.5483C36.8605 17.0626 37.4702 15.1531 37.3225 13.2251C35.4318 13.4237 33.6853 14.3273 32.431 15.756C31.1924 17.1656 30.565 19.0097 30.6868 20.8821C32.6029 20.9019 34.4222 20.0417 35.6229 18.5483Z" fill="white"/>
<path d="M65.7832 20.8877H62.7029V10.9059H65.9197C66.888 10.9059 67.7165 11.1057 68.4054 11.5054C69.0942 11.9018 69.6222 12.472 69.9894 13.2161C70.3566 13.957 70.5402 14.844 70.5402 15.8773C70.5402 16.9171 70.355 17.8122 69.9845 18.5628C69.6141 19.3102 69.0747 19.8853 68.3664 20.2882C67.658 20.6879 66.797 20.8877 65.7832 20.8877ZM63.9116 19.8154H65.7052C66.5305 19.8154 67.2145 19.6562 67.7571 19.3378C68.2998 19.0194 68.7043 18.5661 68.9708 17.978C69.2372 17.3898 69.3704 16.6896 69.3704 15.8773C69.3704 15.0715 69.2388 14.3777 68.9756 13.7961C68.7124 13.2112 68.3193 12.7628 67.7961 12.4509C67.273 12.1357 66.6215 11.9781 65.8417 11.9781H63.9116V19.8154ZM75.7276 21.0437C75.0517 21.0437 74.4587 20.8828 73.9486 20.5611C73.4417 20.2395 73.0453 19.7894 72.7594 19.2111C72.4767 18.6327 72.3353 17.9568 72.3353 17.1835C72.3353 16.4037 72.4767 15.7229 72.7594 15.1413C73.0453 14.5597 73.4417 14.1081 73.9486 13.7864C74.4587 13.4647 75.0517 13.3039 75.7276 13.3039C76.4034 13.3039 76.9948 13.4647 77.5017 13.7864C78.0118 14.1081 78.4083 14.5597 78.6909 15.1413C78.9769 15.7229 79.1198 16.4037 79.1198 17.1835C79.1198 17.9568 78.9769 18.6327 78.6909 19.2111C78.4083 19.7894 78.0118 20.2395 77.5017 20.5611C76.9948 20.8828 76.4034 21.0437 75.7276 21.0437ZM75.7276 20.0104C76.241 20.0104 76.6634 19.8788 76.9948 19.6156C77.3262 19.3524 77.5716 19.0064 77.7308 18.5775C77.89 18.1485 77.9696 17.6839 77.9696 17.1835C77.9696 16.6831 77.89 16.2168 77.7308 15.7847C77.5716 15.3525 77.3262 15.0032 76.9948 14.7368C76.6634 14.4703 76.241 14.3371 75.7276 14.3371C75.2142 14.3371 74.7918 14.4703 74.4604 14.7368C74.1289 15.0032 73.8836 15.3525 73.7244 15.7847C73.5652 16.2168 73.4856 16.6831 73.4856 17.1835C73.4856 17.6839 73.5652 18.1485 73.7244 18.5775C73.8836 19.0064 74.1289 19.3524 74.4604 19.6156C74.7918 19.8788 75.2142 20.0104 75.7276 20.0104ZM82.5916 20.8877L80.3106 13.4013H81.5194L83.1375 19.1331H83.2155L84.8142 13.4013H86.0424L87.6215 19.1136H87.6995L89.3177 13.4013H90.5264L88.2454 20.8877H87.1147L85.477 15.1365H85.36L83.7224 20.8877H82.5916ZM93.4718 16.3842V20.8877H92.3216V13.4013H93.4328V14.5711H93.5303C93.7058 14.1909 93.9722 13.8855 94.3296 13.6548C94.6871 13.4208 95.1485 13.3039 95.7138 13.3039C96.2207 13.3039 96.6643 13.4078 97.0444 13.6158C97.4246 13.8205 97.7203 14.1324 97.9315 14.5516C98.1427 14.9675 98.2483 15.4939 98.2483 16.1307V20.8877H97.098V16.2087C97.098 15.6206 96.9453 15.1624 96.6399 14.8343C96.3345 14.5028 95.9153 14.3371 95.3824 14.3371C95.0152 14.3371 94.6871 14.4167 94.3979 14.5759C94.1119 14.7352 93.8861 14.9675 93.7204 15.2729C93.5547 15.5784 93.4718 15.9488 93.4718 16.3842ZM101.775 10.9059V20.8877H100.625V10.9059H101.775ZM107.198 21.0437C106.522 21.0437 105.929 20.8828 105.419 20.5611C104.912 20.2395 104.515 19.7894 104.229 19.2111C103.947 18.6327 103.805 17.9568 103.805 17.1835C103.805 16.4037 103.947 15.7229 104.229 15.1413C104.515 14.5597 104.912 14.1081 105.419 13.7864C105.929 13.4647 106.522 13.3039 107.198 13.3039C107.873 13.3039 108.465 13.4647 108.972 13.7864C109.482 14.1081 109.878 14.5597 110.161 15.1413C110.447 15.7229 110.59 16.4037 110.59 17.1835C110.59 17.9568 110.447 18.6327 110.161 19.2111C109.878 19.7894 109.482 20.2395 108.972 20.5611C108.465 20.8828 107.873 21.0437 107.198 21.0437ZM107.198 20.0104C107.711 20.0104 108.133 19.8788 108.465 19.6156C108.796 19.3524 109.041 19.0064 109.201 18.5775C109.36 18.1485 109.44 17.6839 109.44 17.1835C109.44 16.6831 109.36 16.2168 109.201 15.7847C109.041 15.3525 108.796 15.0032 108.465 14.7368C108.133 14.4703 107.711 14.3371 107.198 14.3371C106.684 14.3371 106.262 14.4703 105.93 14.7368C105.599 15.0032 105.354 15.3525 105.194 15.7847C105.035 16.2168 104.956 16.6831 104.956 17.1835C104.956 17.6839 105.035 18.1485 105.194 18.5775C105.354 19.0064 105.599 19.3524 105.93 19.6156C106.262 19.8788 106.684 20.0104 107.198 20.0104ZM114.823 21.0632C114.349 21.0632 113.918 20.9738 113.532 20.7951C113.145 20.6131 112.838 20.3516 112.61 20.0104C112.383 19.666 112.269 19.2501 112.269 18.7627C112.269 18.3338 112.354 17.9861 112.523 17.7196C112.692 17.4499 112.917 17.2387 113.2 17.086C113.483 16.9333 113.795 16.8196 114.136 16.7449C114.48 16.6669 114.826 16.6051 115.174 16.5596C115.629 16.5012 115.998 16.4573 116.28 16.428C116.566 16.3956 116.774 16.3419 116.904 16.2672C117.038 16.1925 117.104 16.0625 117.104 15.8773V15.8383C117.104 15.3574 116.973 14.9837 116.709 14.7173C116.449 14.4509 116.055 14.3176 115.525 14.3176C114.976 14.3176 114.545 14.4379 114.233 14.6783C113.921 14.9188 113.702 15.1754 113.575 15.4484L112.484 15.0585C112.679 14.6036 112.939 14.2494 113.263 13.996C113.592 13.7393 113.949 13.5605 114.336 13.4598C114.726 13.3558 115.109 13.3039 115.486 13.3039C115.726 13.3039 116.003 13.3331 116.315 13.3916C116.63 13.4468 116.934 13.5622 117.226 13.7376C117.522 13.9131 117.767 14.1779 117.962 14.5321C118.157 14.8863 118.254 15.3607 118.254 15.9553V20.8877H117.104V19.8739H117.046C116.968 20.0364 116.838 20.2102 116.656 20.3954C116.474 20.5806 116.232 20.7382 115.93 20.8682C115.627 20.9982 115.259 21.0632 114.823 21.0632ZM114.999 20.0299C115.453 20.0299 115.837 19.9405 116.149 19.7618C116.464 19.5831 116.701 19.3524 116.86 19.0697C117.023 18.787 117.104 18.4897 117.104 18.1778V17.125C117.055 17.1835 116.948 17.2371 116.782 17.2859C116.62 17.3313 116.432 17.372 116.217 17.4077C116.006 17.4402 115.8 17.4694 115.598 17.4954C115.4 17.5182 115.239 17.5377 115.116 17.5539C114.817 17.5929 114.537 17.6563 114.277 17.744C114.021 17.8285 113.813 17.9568 113.653 18.129C113.497 18.298 113.419 18.5287 113.419 18.8211C113.419 19.2208 113.567 19.523 113.863 19.7277C114.162 19.9292 114.54 20.0299 114.999 20.0299ZM123.455 21.0437C122.831 21.0437 122.281 20.8861 121.803 20.5709C121.325 20.2525 120.952 19.8041 120.682 19.2257C120.412 18.6441 120.277 17.9568 120.277 17.164C120.277 16.3777 120.412 15.6953 120.682 15.117C120.952 14.5386 121.327 14.0918 121.808 13.7766C122.289 13.4614 122.844 13.3039 123.475 13.3039C123.962 13.3039 124.347 13.3851 124.63 13.5476C124.916 13.7068 125.133 13.8887 125.283 14.0934C125.436 14.2949 125.554 14.4606 125.639 14.5906H125.736V10.9059H126.886V20.8877H125.775V19.7374H125.639C125.554 19.8739 125.434 20.0461 125.278 20.2541C125.122 20.4588 124.9 20.6424 124.61 20.8048C124.321 20.9641 123.936 21.0437 123.455 21.0437ZM123.611 20.0104C124.073 20.0104 124.462 19.8902 124.781 19.6497C125.099 19.406 125.341 19.0697 125.507 18.6408C125.673 18.2087 125.756 17.7099 125.756 17.1445C125.756 16.5856 125.674 16.0966 125.512 15.6775C125.35 15.2551 125.109 14.9269 124.791 14.6929C124.472 14.4557 124.079 14.3371 123.611 14.3371C123.124 14.3371 122.718 14.4622 122.393 14.7124C122.071 14.9594 121.829 15.2957 121.666 15.7213C121.507 16.1437 121.428 16.6181 121.428 17.1445C121.428 17.6774 121.509 18.1615 121.671 18.5969C121.837 19.0291 122.081 19.3735 122.402 19.6302C122.727 19.8837 123.13 20.0104 123.611 20.0104ZM136.603 21.0437C135.927 21.0437 135.334 20.8828 134.824 20.5611C134.317 20.2395 133.921 19.7894 133.635 19.2111C133.352 18.6327 133.211 17.9568 133.211 17.1835C133.211 16.4037 133.352 15.7229 133.635 15.1413C133.921 14.5597 134.317 14.1081 134.824 13.7864C135.334 13.4647 135.927 13.3039 136.603 13.3039C137.279 13.3039 137.871 13.4647 138.377 13.7864C138.888 14.1081 139.284 14.5597 139.567 15.1413C139.853 15.7229 139.996 16.4037 139.996 17.1835C139.996 17.9568 139.853 18.6327 139.567 19.2111C139.284 19.7894 138.888 20.2395 138.377 20.5611C137.871 20.8828 137.279 21.0437 136.603 21.0437ZM136.603 20.0104C137.117 20.0104 137.539 19.8788 137.871 19.6156C138.202 19.3524 138.447 19.0064 138.607 18.5775C138.766 18.1485 138.845 17.6839 138.845 17.1835C138.845 16.6831 138.766 16.2168 138.607 15.7847C138.447 15.3525 138.202 15.0032 137.871 14.7368C137.539 14.4703 137.117 14.3371 136.603 14.3371C136.09 14.3371 135.668 14.4703 135.336 14.7368C135.005 15.0032 134.759 15.3525 134.6 15.7847C134.441 16.2168 134.361 16.6831 134.361 17.1835C134.361 17.6839 134.441 18.1485 134.6 18.5775C134.759 19.0064 135.005 19.3524 135.336 19.6156C135.668 19.8788 136.09 20.0104 136.603 20.0104ZM143.176 16.3842V20.8877H142.026V13.4013H143.137V14.5711H143.235C143.41 14.1909 143.677 13.8855 144.034 13.6548C144.391 13.4208 144.853 13.3039 145.418 13.3039C145.925 13.3039 146.369 13.4078 146.749 13.6158C147.129 13.8205 147.425 14.1324 147.636 14.5516C147.847 14.9675 147.953 15.4939 147.953 16.1307V20.8877H146.802V16.2087C146.802 15.6206 146.65 15.1624 146.344 14.8343C146.039 14.5028 145.62 14.3371 145.087 14.3371C144.72 14.3371 144.391 14.4167 144.102 14.5759C143.816 14.7352 143.59 14.9675 143.425 15.2729C143.259 15.5784 143.176 15.9488 143.176 16.3842ZM157.719 13.4013V14.3761H153.84V13.4013H157.719ZM154.971 11.6077H156.121V18.7432C156.121 19.0681 156.168 19.3118 156.262 19.4743C156.36 19.6335 156.483 19.7407 156.633 19.7959C156.785 19.8479 156.946 19.8739 157.115 19.8739C157.242 19.8739 157.346 19.8674 157.427 19.8544C157.508 19.8382 157.573 19.8252 157.622 19.8154L157.856 20.8487C157.778 20.8779 157.669 20.9072 157.529 20.9364C157.39 20.9689 157.213 20.9852 156.998 20.9852C156.673 20.9852 156.355 20.9153 156.043 20.7756C155.734 20.6359 155.477 20.423 155.273 20.1371C155.071 19.8512 154.971 19.4905 154.971 19.0551V11.6077ZM161.035 16.3842V20.8877H159.885V10.9059H161.035V14.5711H161.133C161.308 14.1844 161.571 13.8774 161.922 13.6499C162.277 13.4192 162.748 13.3039 163.336 13.3039C163.846 13.3039 164.293 13.4062 164.676 13.6109C165.06 13.8124 165.357 14.1227 165.568 14.5418C165.782 14.9577 165.89 15.4874 165.89 16.1307V20.8877H164.739V16.2087C164.739 15.6141 164.585 15.1543 164.276 14.8294C163.971 14.5012 163.547 14.3371 163.004 14.3371C162.627 14.3371 162.29 14.4167 161.991 14.5759C161.695 14.7352 161.461 14.9675 161.289 15.2729C161.12 15.5784 161.035 15.9488 161.035 16.3842ZM171.407 21.0437C170.686 21.0437 170.064 20.8844 169.541 20.566C169.021 20.2443 168.619 19.7959 168.337 19.2208C168.057 18.6424 167.918 17.9698 167.918 17.203C167.918 16.4362 168.057 15.7603 168.337 15.1754C168.619 14.5873 169.013 14.1292 169.516 13.801C170.023 13.4696 170.615 13.3039 171.29 13.3039C171.68 13.3039 172.065 13.3688 172.446 13.4988C172.826 13.6288 173.172 13.84 173.484 14.1324C173.796 14.4216 174.044 14.805 174.229 15.2827C174.415 15.7603 174.507 16.3484 174.507 17.047V17.5344H168.736V16.5401H173.337C173.337 16.1177 173.253 15.7408 173.084 15.4094C172.918 15.078 172.681 14.8164 172.372 14.6247C172.067 14.433 171.706 14.3371 171.29 14.3371C170.832 14.3371 170.436 14.4509 170.101 14.6783C169.77 14.9025 169.515 15.1949 169.336 15.5556C169.157 15.9163 169.068 16.3029 169.068 16.7156V17.3785C169.068 17.9438 169.165 18.4231 169.36 18.8163C169.559 19.2062 169.833 19.5035 170.184 19.7082C170.535 19.9097 170.943 20.0104 171.407 20.0104C171.71 20.0104 171.982 19.9681 172.226 19.8837C172.473 19.7959 172.686 19.666 172.865 19.4938C173.043 19.3183 173.181 19.1006 173.279 18.8406L174.39 19.1526C174.273 19.5295 174.077 19.8609 173.8 20.1469C173.524 20.4295 173.183 20.6505 172.777 20.8097C172.371 20.9657 171.914 21.0437 171.407 21.0437Z" fill="white"/>
<path d="M87.297 33.0147C90.8012 33.0147 93.1111 35.7847 93.1111 40.0634C93.1111 44.3539 90.8146 47.1106 87.3491 47.1106C85.5579 47.2043 83.8706 46.266 83.005 44.695H82.9394V51.5336H80.1053V33.1592H82.8486V35.4556H82.9007C83.8048 33.8944 85.4939 32.9566 87.297 33.0147ZM102.493 33.0147C105.998 33.0147 108.307 35.7847 108.307 40.0634C108.307 44.3539 106.011 47.1106 102.546 47.1106C100.754 47.2043 99.0669 46.266 98.2014 44.695H98.1358V51.5336H95.3017V33.1592H98.0449V35.4556H98.0971C99.0011 33.8944 100.69 32.9566 102.493 33.0147ZM122.84 27.7129C126.841 27.7129 129.584 29.9572 129.677 33.2246H126.816C126.645 31.3348 125.082 30.194 122.799 30.194C120.516 30.194 118.954 31.3482 118.954 33.0281C118.954 34.3669 119.952 35.1547 122.393 35.7578L124.479 36.2701C128.365 37.189 129.979 38.7498 129.979 41.5198C129.979 45.0627 127.157 47.2817 122.668 47.2817C118.469 47.2817 115.633 45.1148 115.45 41.6895L118.351 41.6897C118.561 43.5676 120.385 44.8007 122.878 44.8007C125.267 44.8007 126.986 43.5676 126.986 41.8743C126.986 40.4044 125.949 39.5242 123.495 38.9211L121.041 38.3298C117.563 37.4899 115.949 35.8636 115.949 33.2246C115.949 29.9572 118.796 27.7129 122.84 27.7129ZM146.79 32.9894C150.793 32.9894 153.34 35.7192 153.34 40.0634C153.34 44.4195 150.806 47.1374 146.79 47.1374C142.775 47.1374 140.242 44.4195 140.242 40.0634C140.242 35.7192 142.8 32.9894 146.79 32.9894ZM169.739 32.9894C173.559 32.9894 175.961 35.6135 175.961 39.7998V40.7708H166.21V40.942C166.119 41.9699 166.474 42.9874 167.184 43.7357C167.895 44.4839 168.893 44.8908 169.924 44.8528C171.299 44.9817 172.596 44.1919 173.113 42.9108L175.804 42.9108C175.422 45.4173 172.981 47.1374 169.858 47.1374C165.842 47.1374 163.349 44.4463 163.349 40.1289C163.349 35.7982 165.855 32.9894 169.739 32.9894ZM136.096 29.8917V33.1592H138.721V35.4035H136.096V43.0151C136.096 44.1976 136.621 44.7486 137.775 44.7486C138.087 44.7432 138.398 44.7213 138.708 44.683V46.9139C138.189 47.0109 137.661 47.0548 137.134 47.045C134.338 47.045 133.248 45.995 133.248 43.3174V35.4035H131.241V33.1592H133.248V29.8917H136.096ZM71.5079 28.0287L78.3451 46.9661H75.2355L73.5035 41.8475H66.2851L64.5516 46.9661H61.4941L68.3313 28.0287H71.5079ZM161.766 33.0147C162.093 33.0136 162.418 33.049 162.737 33.1204V35.7713C162.325 35.6453 161.894 35.5875 161.464 35.6001C160.63 35.5663 159.824 35.8983 159.256 36.509C158.688 37.1198 158.416 37.9481 158.51 38.7766V46.9661H155.676V33.1592H158.379V35.5092H158.445C158.822 33.9964 160.208 32.9552 161.766 33.0147ZM146.79 35.3246C144.493 35.3246 143.129 37.0968 143.129 40.0634C143.129 43.0553 144.493 44.8007 146.79 44.8007C149.086 44.8007 150.452 43.0553 150.452 40.0634C150.452 37.0834 149.086 35.3246 146.79 35.3246ZM86.5494 35.4303C84.384 35.4303 82.9275 37.3068 82.9275 40.0634C82.9275 42.8453 84.384 44.7084 86.5494 44.7084C88.7535 44.7084 90.1981 42.884 90.1981 40.0634C90.1981 37.2681 88.7535 35.4303 86.5494 35.4303ZM101.746 35.4303C99.5804 35.4303 98.1239 37.3068 98.1239 40.0634C98.1239 42.8453 99.5804 44.7084 101.746 44.7084C103.95 44.7084 105.394 42.884 105.394 40.0634C105.394 37.2681 103.95 35.4303 101.746 35.4303ZM69.9338 31.1785H69.8549L67.0327 39.4856H72.7545L69.9338 31.1785ZM169.739 35.2858C168.807 35.2803 167.911 35.6473 167.251 36.3053C166.591 36.9634 166.221 37.8579 166.223 38.7901H173.126C173.177 37.8664 172.841 36.9632 172.198 36.298C171.555 35.6328 170.664 35.266 169.739 35.2858Z" fill="white"/>
</svg>
