<svg width="199" height="61" viewBox="0 0 199 61" fill="none" xmlns="http://www.w3.org/2000/svg">
<rect x="0.7625" y="0.7625" width="196.725" height="59.475" rx="8.3875" fill="black"/>
<rect x="0.7625" y="0.7625" width="196.725" height="59.475" rx="8.3875" stroke="#A6A6A6" stroke-width="1.525"/>
<path fill-rule="evenodd" clip-rule="evenodd" d="M14.2631 11.0097C13.8194 11.4794 13.5586 12.2068 13.5586 13.1508V46.8503C13.5586 47.7942 13.8194 48.5216 14.2631 48.9913L14.376 49.1012L33.254 30.2232V29.7779L14.376 10.8999L14.2631 11.0097Z" fill="#00D7FE"/>
<mask id="mask0_5569_442" style="mask-type:alpha" maskUnits="userSpaceOnUse" x="33" y="23" width="16" height="14">
<path d="M39.5445 36.5181L33.2539 30.2229V29.7776L39.5476 23.4839L47.1451 27.7996C49.274 29.0105 49.274 30.9899 47.1451 32.1993L39.6894 36.4357L39.5445 36.5181Z" fill="white"/>
</mask>
<g mask="url(#mask0_5569_442)">
<path fill-rule="evenodd" clip-rule="evenodd" d="M39.5445 36.5181L33.2539 30.2229V29.7776L39.5476 23.4839L47.1451 27.7996C49.274 29.0105 49.274 30.9899 47.1451 32.1993L39.6894 36.4357L39.5445 36.5181Z" fill="url(#paint0_linear_5569_442)"/>
</g>
<mask id="mask1_5569_442" style="mask-type:alpha" maskUnits="userSpaceOnUse" x="14" y="30" width="26" height="20">
<path d="M39.6919 36.436L33.2564 30.0005L14.2656 48.9913C14.9686 49.734 16.1277 49.8255 17.4331 49.0843L39.6919 36.436Z" fill="white"/>
</mask>
<g mask="url(#mask1_5569_442)">
<path fill-rule="evenodd" clip-rule="evenodd" d="M39.6919 36.436L33.2564 30.0005L14.2656 48.9913C14.9686 49.734 16.1277 49.8255 17.4331 49.0843L39.6919 36.436Z" fill="url(#paint1_linear_5569_442)"/>
</g>
<mask id="mask2_5569_442" style="mask-type:alpha" maskUnits="userSpaceOnUse" x="14" y="10" width="26" height="21">
<path d="M39.6919 23.5652L17.4331 10.9169C16.1277 10.1757 14.9686 10.2672 14.2656 11.0099L33.2564 30.0007L39.6919 23.5652Z" fill="white"/>
</mask>
<g mask="url(#mask2_5569_442)">
<path fill-rule="evenodd" clip-rule="evenodd" d="M39.6919 23.5652L17.4331 10.9169C16.1277 10.1757 14.9686 10.2672 14.2656 11.0099L33.2564 30.0007L39.6919 23.5652Z" fill="url(#paint2_linear_5569_442)"/>
</g>
<path fill-rule="evenodd" clip-rule="evenodd" d="M158.315 46.704H161.16V27.64H158.315V46.704ZM183.945 34.5071L180.683 42.7726H180.586L177.2 34.5071H174.135L179.212 46.0589L176.317 52.4853H179.286L187.11 34.5071H183.945ZM167.808 44.5385C166.874 44.5385 165.575 44.0734 165.575 42.9205C165.575 41.4489 167.195 40.8846 168.591 40.8846C169.844 40.8846 170.431 41.1545 171.192 41.5221C170.97 43.288 169.45 44.5385 167.808 44.5385ZM168.151 34.0907C166.09 34.0907 163.957 34.9981 163.074 37.0096L165.599 38.0634C166.139 37.0096 167.144 36.6649 168.2 36.6649C169.671 36.6649 171.167 37.5479 171.192 39.1187V39.3139C170.676 39.0195 169.574 38.5788 168.224 38.5788C165.502 38.5788 162.729 40.0748 162.729 42.8702C162.729 45.4215 164.962 47.0654 167.463 47.0654C169.377 47.0654 170.431 46.2069 171.094 45.2004H171.192V46.672H173.938V39.3642C173.938 35.9787 171.413 34.0907 168.151 34.0907ZM150.564 36.8281H146.517V30.2935H150.564C152.692 30.2935 153.9 32.0549 153.9 33.56C153.9 35.0378 152.692 36.8281 150.564 36.8281ZM150.491 27.64H143.673V46.704H146.517V39.4816H150.491C153.645 39.4816 156.745 37.1972 156.745 33.56C156.745 29.9229 153.645 27.64 150.491 27.64ZM113.31 44.5416C111.345 44.5416 109.699 42.8961 109.699 40.636C109.699 38.3516 111.345 36.6802 113.31 36.6802C115.252 36.6802 116.774 38.3516 116.774 40.636C116.774 42.8961 115.252 44.5416 113.31 44.5416ZM116.577 35.5746H116.479C115.84 34.8136 114.613 34.1258 113.065 34.1258C109.821 34.1258 106.849 36.9745 106.849 40.636C106.849 44.2716 109.821 47.0975 113.065 47.0975C114.613 47.0975 115.84 46.4097 116.479 45.6228H116.577V46.5561C116.577 49.0388 115.252 50.3655 113.114 50.3655C111.369 50.3655 110.288 49.112 109.845 48.0552L107.364 49.0876C108.076 50.8078 109.969 52.9199 113.114 52.9199C116.455 52.9199 119.281 50.9542 119.281 46.1642V34.5177H116.577V35.5746ZM121.246 46.704H124.097V27.6385H121.246V46.704ZM128.296 40.4149C128.223 37.9093 130.238 36.6314 131.686 36.6314C132.818 36.6314 133.776 37.1956 134.094 38.0069L128.296 40.4149ZM137.141 38.2525C136.602 36.8037 134.955 34.1258 131.589 34.1258C128.248 34.1258 125.472 36.7534 125.472 40.6116C125.472 44.2472 128.223 47.0975 131.908 47.0975C134.881 47.0975 136.602 45.2797 137.314 44.2228L135.102 42.7482C134.366 43.8294 133.358 44.5416 131.908 44.5416C130.459 44.5416 129.426 43.8782 128.763 42.5774L137.436 38.9906L137.141 38.2525ZM68.0467 36.1159V38.867H74.6301C74.4334 40.4149 73.918 41.5449 73.1326 42.3318C72.1734 43.2895 70.6743 44.3448 68.0467 44.3448C63.9933 44.3448 60.8228 41.0783 60.8228 37.0248C60.8228 32.9699 63.9933 29.7033 68.0467 29.7033C70.2336 29.7033 71.8302 30.5634 73.0091 31.669L74.9504 29.7277C73.3034 28.1554 71.1181 26.9507 68.0467 26.9507C62.4942 26.9507 57.8262 31.4723 57.8262 37.0248C57.8262 42.5774 62.4942 47.0975 68.0467 47.0975C71.0433 47.0975 73.3034 46.1154 75.0724 44.2716C76.8902 42.4538 77.456 39.8995 77.456 37.8346C77.456 37.1956 77.4072 36.607 77.308 36.1159H68.0467ZM84.9422 44.5416C82.9765 44.5416 81.2807 42.9205 81.2807 40.6116C81.2807 38.2769 82.9765 36.6802 84.9422 36.6802C86.9064 36.6802 88.6022 38.2769 88.6022 40.6116C88.6022 42.9205 86.9064 44.5416 84.9422 44.5416ZM84.9422 34.1258C81.3539 34.1258 78.4304 36.8525 78.4304 40.6116C78.4304 44.3448 81.3539 47.0975 84.9422 47.0975C88.529 47.0975 91.4524 44.3448 91.4524 40.6116C91.4524 36.8525 88.529 34.1258 84.9422 34.1258ZM99.1445 44.5416C97.1788 44.5416 95.483 42.9205 95.483 40.6116C95.483 38.2769 97.1788 36.6802 99.1445 36.6802C101.11 36.6802 102.805 38.2769 102.805 40.6116C102.805 42.9205 101.11 44.5416 99.1445 44.5416ZM99.1445 34.1258C95.5577 34.1258 92.6343 36.8525 92.6343 40.6116C92.6343 44.3448 95.5577 47.0975 99.1445 47.0975C102.731 47.0975 105.655 44.3448 105.655 40.6116C105.655 36.8525 102.731 34.1258 99.1445 34.1258Z" fill="#FFFFFE"/>
<path d="M66.1697 15.2668V18.8388C66.0491 19.0175 65.857 19.2185 65.5934 19.4419C65.3298 19.6608 64.9657 19.853 64.501 20.0183C64.0408 20.1791 63.4466 20.2595 62.7184 20.2595C62.1242 20.2595 61.5769 20.1568 61.0765 19.9512C60.5806 19.7413 60.1494 19.4375 59.7831 19.0398C59.4212 18.6377 59.1397 18.1507 58.9386 17.5789C58.7421 17.0025 58.6438 16.3502 58.6438 15.622V14.8647C58.6438 14.1364 58.7287 13.4864 58.8984 12.9145C59.0727 12.3426 59.3273 11.8579 59.6624 11.4602C59.9975 11.0581 60.4085 10.7543 60.8955 10.5488C61.3825 10.3388 61.941 10.2338 62.5709 10.2338C63.3171 10.2338 63.9403 10.3634 64.4407 10.6225C64.9456 10.8772 65.3387 11.2302 65.6202 11.6814C65.9061 12.1326 66.0893 12.6464 66.1697 13.2228H64.8763C64.8182 12.8698 64.7021 12.5481 64.5278 12.2577C64.3581 11.9673 64.1146 11.735 63.7974 11.5608C63.4801 11.3821 63.0713 11.2927 62.5709 11.2927C62.1197 11.2927 61.7288 11.3754 61.3982 11.5407C61.0675 11.706 60.795 11.9428 60.5806 12.251C60.3661 12.5593 60.2053 12.9324 60.098 13.3702C59.9953 13.8081 59.9439 14.3017 59.9439 14.8513V15.622C59.9439 16.1849 60.0087 16.6875 60.1382 17.1298C60.2723 17.5722 60.4622 17.9497 60.7079 18.2624C60.9536 18.5707 61.2463 18.8053 61.5858 18.9661C61.9298 19.1269 62.3096 19.2074 62.7251 19.2074C63.1853 19.2074 63.5583 19.1694 63.8443 19.0934C64.1302 19.013 64.3536 18.9192 64.5144 18.812C64.6753 18.7003 64.7981 18.5953 64.883 18.497V16.3122H62.6246V15.2668H66.1697ZM74.1016 19.0733V20.1255H68.9346V19.0733H74.1016ZM69.1959 10.3679V20.1255H67.9025V10.3679H69.1959ZM73.418 14.5631V15.6153H68.9346V14.5631H73.418ZM74.0345 10.3679V11.4267H68.9346V10.3679H74.0345ZM79.031 10.3679V20.1255H77.7577V10.3679H79.031ZM82.1674 10.3679V11.4267H74.628V10.3679H82.1674ZM87.3151 10.3679V20.1255H86.0217V10.3679H87.3151ZM92.6601 10.3679V20.1255H91.3867V10.3679H92.6601ZM95.7964 10.3679V11.4267H88.2571V10.3679H95.7964ZM107.069 14.9384V15.555C107.069 16.2877 106.978 16.9444 106.795 17.5252C106.611 18.1061 106.348 18.5997 106.004 19.0063C105.66 19.4129 105.247 19.7234 104.764 19.9378C104.286 20.1523 103.75 20.2595 103.156 20.2595C102.579 20.2595 102.05 20.1523 101.567 19.9378C101.089 19.7234 100.674 19.4129 100.321 19.0063C99.9724 18.5997 99.7021 18.1061 99.51 17.5252C99.3178 16.9444 99.2218 16.2877 99.2218 15.555V14.9384C99.2218 14.2057 99.3156 13.5512 99.5033 12.9748C99.6954 12.394 99.9657 11.9003 100.314 11.4938C100.663 11.0827 101.076 10.77 101.554 10.5555C102.036 10.3411 102.566 10.2338 103.142 10.2338C103.736 10.2338 104.273 10.3411 104.751 10.5555C105.233 10.77 105.646 11.0827 105.99 11.4938C106.339 11.9003 106.605 12.394 106.788 12.9748C106.976 13.5512 107.069 14.2057 107.069 14.9384ZM105.789 15.555V14.925C105.789 14.3442 105.729 13.8304 105.608 13.3836C105.492 12.9368 105.32 12.5615 105.092 12.2577C104.865 11.9539 104.585 11.7238 104.255 11.5675C103.929 11.4111 103.558 11.3329 103.142 11.3329C102.74 11.3329 102.376 11.4111 102.05 11.5675C101.728 11.7238 101.451 11.9539 101.219 12.2577C100.991 12.5615 100.815 12.9368 100.689 13.3836C100.564 13.8304 100.502 14.3442 100.502 14.925V15.555C100.502 16.1402 100.564 16.6585 100.689 17.1097C100.815 17.5565 100.993 17.934 101.226 18.2423C101.462 18.5461 101.742 18.7762 102.063 18.9326C102.389 19.089 102.754 19.1672 103.156 19.1672C103.576 19.1672 103.949 19.089 104.275 18.9326C104.601 18.7762 104.876 18.5461 105.099 18.2423C105.327 17.934 105.499 17.5565 105.615 17.1097C105.731 16.6585 105.789 16.1402 105.789 15.555ZM116.1 10.3679V20.1255H114.8L109.888 12.5995V20.1255H108.594V10.3679H109.888L114.82 17.9139V10.3679H116.1Z" fill="white"/>
<defs>
<linearGradient id="paint0_linear_5569_442" x1="45.7601" y1="30.0007" x2="33.2539" y2="30.0007" gradientUnits="userSpaceOnUse">
<stop stop-color="#FFBC00"/>
<stop offset="1" stop-color="#FFDA03"/>
</linearGradient>
<linearGradient id="paint1_linear_5569_442" x1="36.1945" y1="36.0559" x2="19.8717" y2="49.5103" gradientUnits="userSpaceOnUse">
<stop stop-color="#E22652"/>
<stop offset="1" stop-color="#FF3A44"/>
</linearGradient>
<linearGradient id="paint2_linear_5569_442" x1="17.1413" y1="13.2961" x2="28.024" y2="22.8654" gradientUnits="userSpaceOnUse">
<stop stop-color="#0ED574"/>
<stop offset="1" stop-color="#07F076"/>
</linearGradient>
</defs>
</svg>
