<svg width="42" height="42" viewBox="0 0 42 42" fill="none" xmlns="http://www.w3.org/2000/svg">
<path d="M13.2128 38.0625C29.0579 38.0625 37.727 24.9318 37.727 13.5483C37.727 13.1792 37.7188 12.8018 37.7024 12.4327C39.3888 11.2131 40.8441 9.70251 42 7.97183C40.4294 8.67061 38.7619 9.12698 37.0543 9.32535C38.8522 8.24765 40.1984 6.55464 40.8434 4.56015C39.152 5.56254 37.3023 6.26963 35.3735 6.65113C34.074 5.27029 32.3557 4.35601 30.4844 4.04965C28.6132 3.74329 26.6931 4.0619 25.021 4.95623C23.349 5.85056 22.0182 7.2708 21.2342 8.99736C20.4503 10.7239 20.257 12.6606 20.6842 14.5081C17.2594 14.3362 13.9089 13.4465 10.85 11.8967C7.79105 10.3469 5.09196 8.17158 2.9277 5.51172C1.8277 7.40824 1.4911 9.65244 1.9863 11.7882C2.48151 13.924 3.77136 15.7911 5.59371 17.01C4.2256 16.9666 2.88746 16.5983 1.68984 15.9354V16.0421C1.68862 18.0323 2.37667 19.9616 3.63704 21.5019C4.89741 23.0422 6.65232 24.0985 8.60344 24.4913C7.3361 24.838 6.00597 24.8886 4.71598 24.6389C5.26655 26.3506 6.33775 27.8476 7.7801 28.9211C9.22244 29.9947 10.964 30.5911 12.7616 30.6272C9.70974 33.0245 5.93981 34.3248 2.05898 34.3186C1.37075 34.3176 0.683198 34.2754 0 34.1923C3.9425 36.7216 8.52868 38.065 13.2128 38.0625Z" fill="#98A2B3"/>
</svg>
